HIERARCHY
ROOT Hips
{
	OFFSET -3.958830 18.904000 13.208200
	CHANNELS 6 Xposition Yposition Zposition Zrotation Yrotation Xrotation 
	JOINT LHipJoint
	{
		OFFSET 0.000000 0.000000 0.000000
		CHANNELS 3 Zrotation Yrotation Xrotation
		JOINT LeftUpLeg
		{
			OFFSET 1.800000 -1.400000 0.085000
			CHANNELS 3 Zrotation Yrotation Xrotation
			JOINT LeftLeg
			{
				OFFSET 2.215000 -6.000000 0.000000
				CHANNELS 3 Zrotation Yrotation Xrotation
				JOINT LeftFoot
				{
					OFFSET 2.500000 -6.900000 0.000000
					CHANNELS 3 Zrotation Yrotation Xrotation
					JOINT LeftToeBase
					{
						OFFSET 0.200000 -0.500000 1.950000
						CHANNELS 3 Zrotation Yrotation Xrotation
						End Site
						{
							OFFSET 0.000000 0.000000 0.000000
						}
					}
				}
			}
		}
	}
	JOINT RHipJoint
	{
		OFFSET 0.000000 0.000000 0.000000
		CHANNELS 3 Zrotation Yrotation Xrotation
		JOINT RightUpLeg
		{
			OFFSET -1.800000 -1.400000 0.085000
			CHANNELS 3 Zrotation Yrotation Xrotation
			JOINT RightLeg
			{
				OFFSET -2.215000 -6.000000 0.000000
				CHANNELS 3 Zrotation Yrotation Xrotation
				JOINT RightFoot
				{
					OFFSET -2.500000 -6.900000 0.000000
					CHANNELS 3 Zrotation Yrotation Xrotation
					JOINT RightToeBase
					{
						OFFSET -0.200000 -0.500000 1.950000
						CHANNELS 3 Zrotation Yrotation Xrotation
						End Site
						{
							OFFSET 0.000000 0.000000 0.000000
						}
					}
				}
			}
		}
	}
	JOINT LowerBack
	{
		OFFSET 0.000000 0.000000 0.000000
		CHANNELS 3 Zrotation Yrotation Xrotation
		JOINT Spine
		{
			OFFSET -0.087000 1.940000 -0.288900
			CHANNELS 3 Zrotation Yrotation Xrotation
			JOINT Spine1
			{
				OFFSET 0.000000 1.950000 0.060000
				CHANNELS 3 Zrotation Yrotation Xrotation
				JOINT Neck
				{
					OFFSET 0.000000 0.000000 0.000000
					CHANNELS 3 Zrotation Yrotation Xrotation
					JOINT Neck1
					{
						OFFSET 0.000000 1.600000 0.340000
						CHANNELS 3 Zrotation Yrotation Xrotation
						JOINT Head
						{
							OFFSET 0.000000 1.667000 -0.240000
							CHANNELS 3 Zrotation Yrotation Xrotation
							End Site
							{
								OFFSET 0.000000 0.000000 0.000000
							}
						}
					}
				}
				JOINT LeftShoulder
				{
					OFFSET 0.000000 0.000000 0.000000
					CHANNELS 3 Zrotation Yrotation Xrotation
					JOINT LeftArm
					{
						OFFSET 2.700000 1.550000 -0.730000
						CHANNELS 3 Zrotation Yrotation Xrotation
						JOINT LeftForeArm
						{
							OFFSET 5.450000 0.000000 0.000000
							CHANNELS 3 Zrotation Yrotation Xrotation
							JOINT LeftHand
							{
								OFFSET 3.450000 0.000000 0.000000
								CHANNELS 3 Zrotation Yrotation Xrotation
								JOINT LeftHandIndex1
								{
									OFFSET 0.750000 0.000000 0.000000
									CHANNELS 3 Zrotation Yrotation Xrotation
									End Site
									{
										OFFSET 0.000000 0.000000 0.000000
									}
								}
							}
						}
					}
				}
				JOINT RightShoulder
				{
					OFFSET 0.000000 0.000000 0.000000
					CHANNELS 3 Zrotation Yrotation Xrotation
					JOINT RightArm
					{
						OFFSET -2.700000 1.550000 -0.730000
						CHANNELS 3 Zrotation Yrotation Xrotation
						JOINT RightForeArm
						{
							OFFSET -5.450000 0.000000 0.000000
							CHANNELS 3 Zrotation Yrotation Xrotation
							JOINT RightHand
							{
								OFFSET -3.450000 0.000000 0.000000
								CHANNELS 3 Zrotation Yrotation Xrotation
								JOINT RightHandIndex1
								{
									OFFSET -0.750000 0.000000 0.000000
									CHANNELS 3 Zrotation Yrotation Xrotation
									End Site
									{
										OFFSET 0.000000 0.000000 0.000000
									}
								}
							}
						}
					}
				}
			}
		}
	}
}
MOTION
Frames: 9
Frame Time: 0.016667
-0.333940 17.698620 -2.966230 18.260253 7.974750 -19.909655 -16.209642 11.081554 7.502698 -2.643916 -13.267826 -78.563627 8.083429 11.412813 72.263708 1.904241 12.097644 0.443333 0.482980 0.114960 0.674730 17.713680 -9.217360 0.963271 -21.983693 2.187648 5.436364 1.181631 -5.532074 14.185166 -0.737587 -4.393611 2.788476 -0.373610 -0.476380 0.394950 -1.434162 -3.451636 -9.165176 -12.985878 20.168198 59.847888 3.562289 17.581398 -9.226908 3.939607 3.282049 -14.262001 7.792899 -9.425272 49.583301 -0.990180 -3.896800 -19.925700 -25.496235 -5.963610 4.339354 -54.172018 19.962142 -18.822718 -28.274645 -13.128308 -1.199275 -2.985266 3.114117 0.622640 -0.468940 0.568810 0.064980 16.283441 19.116746 10.990180 36.060970 1.691539 -18.628008 -140.207275 24.167178 -93.755682 2.556113 -1.759987 0.380000 -0.341460 -0.391810 -0.083880 
-0.317280 17.769090 -2.972090 18.127786 6.849874 -20.112511 -16.221410 11.112210 7.524015 -1.174698 -12.469507 -78.483851 7.303486 12.842221 74.846530 2.051400 12.681268 0.271501 0.511690 0.145880 0.703150 17.708176 -9.245951 0.869009 -21.985736 2.176097 4.222067 1.026643 -5.469153 15.373012 -0.724056 -4.306737 2.793731 -0.368850 -0.513490 0.415360 -1.419834 -3.463469 -9.159047 -13.276902 20.576208 59.794285 4.160109 17.817478 -9.303786 3.658870 3.470950 -14.353341 8.233296 -9.442698 50.265057 -1.293240 -3.520190 -20.015120 -25.334500 -6.248488 4.683793 -54.678329 20.510104 -19.307715 -29.449543 -13.369961 -1.213349 -2.971866 3.145008 0.626820 -0.482410 0.595190 0.056700 16.797276 19.163114 10.876583 36.916838 1.238679 -19.094716 -140.087813 25.434611 -96.223379 2.571575 -1.758156 0.410470 -0.374980 -0.406130 -0.088230 
-0.290440 17.887550 -2.985610 17.600545 4.984686 -20.541393 -16.248836 11.204518 7.548813 1.363558 -11.135595 -77.412533 5.262848 15.974279 78.928936 2.301848 13.726037 -0.008983 0.536520 0.178280 0.740410 17.687879 -9.266365 0.725168 -21.702472 2.171221 2.002499 1.089826 -5.413853 17.646581 -0.692066 -4.159059 2.823759 -0.357580 -0.555910 0.408120 -1.365381 -3.589254 -9.161797 -13.611907 20.964332 59.896540 5.395660 18.108356 -9.457810 3.202021 3.479725 -14.591403 8.594650 -9.256840 51.944386 -2.082130 -2.840240 -20.419590 -24.787152 -6.575742 5.234711 -55.696112 21.623204 -20.285922 -32.300756 -13.615180 -1.310580 -2.959595 3.130846 0.648310 -0.504240 0.624160 0.040100 17.335463 19.422208 10.714304 38.392507 0.800818 -20.053806 -139.170781 27.945238 -99.440801 2.591321 -1.704401 0.420780 -0.374950 -0.415140 -0.105390 
-0.262360 18.016920 -3.012380 16.848787 2.838331 -20.903760 -16.263327 11.355831 7.535298 3.696356 -9.732977 -75.191517 3.324785 19.582423 82.948251 2.590173 14.823219 -0.278936 0.591910 0.236590 0.816180 17.669796 -9.317718 0.577438 -21.133524 2.506760 -1.545596 1.332409 -5.376065 21.755785 -0.670980 -4.047113 2.815248 -0.329490 -0.610670 0.403080 -1.329992 -3.708832 -9.150722 -13.808890 21.008845 59.734089 6.865707 17.864877 -8.660757 2.730725 3.150052 -14.983412 8.267931 -8.527798 54.090886 -2.639650 -2.054640 -21.365360 -23.813049 -7.546359 6.016171 -57.426440 22.392299 -21.703009 -35.447750 -13.872978 -1.536708 -2.936160 3.115904 0.679790 -0.540430 0.671810 0.028070 17.580762 20.323169 10.657092 39.600376 1.220025 -20.823932 -137.771057 31.800372 -103.819797 2.628780 -1.632940 0.434630 -0.366990 -0.445820 -0.125040 
-0.217630 18.143200 -3.054930 15.341657 0.330054 -21.147032 -16.265632 11.439436 7.564899 6.769202 -8.110967 -72.563679 0.575676 24.033948 86.278491 2.869761 15.983580 -0.548482 0.633170 0.284890 0.866420 17.677798 -9.284355 0.534308 -19.634829 3.704271 -6.290265 1.801138 -5.467874 28.311392 -0.692861 -4.203784 2.720649 -0.294550 -0.644870 0.384570 -1.343575 -3.786617 -9.225698 -12.790335 19.957439 60.261994 7.816014 17.092193 -8.057456 2.409020 2.230258 -15.304201 6.564625 -6.966628 56.691399 -3.580070 -1.175820 -22.839340 -22.882507 -8.442112 6.698934 -59.086802 23.402916 -23.291898 -39.176111 -13.751606 -1.990852 -2.921027 3.068245 0.727960 -0.571510 0.710030 0.020540 17.617697 21.357020 10.482290 41.111552 1.892538 -21.768851 -135.460574 36.632805 -107.256598 2.652568 -1.517377 0.422400 -0.323770 -0.455720 -0.147140 
-0.162670 18.256710 -3.101380 13.452300 -1.897783 -20.885394 -16.264567 11.431235 7.485495 9.477254 -6.719083 -69.147099 -1.641256 28.116755 88.753748 3.141067 16.933155 -0.763209 0.690280 0.363270 0.917830 17.705095 -8.979300 0.819325 -18.319527 6.156333 -12.138744 3.760376 -6.396365 36.525975 -0.843966 -4.936923 2.411719 -0.258810 -0.698430 0.382360 -1.377838 -3.941623 -9.412242 -11.242205 18.310673 61.006161 8.578526 15.870169 -7.798241 2.238102 1.007973 -15.576457 3.931665 -5.046973 59.341431 -4.412540 -0.589730 -24.943210 -22.409099 -9.343746 7.293576 -60.532348 24.510711 -24.922378 -42.754345 -13.247697 -2.657110 -2.891844 3.056305 0.760240 -0.615360 0.764500 0.011740 17.859869 22.439097 10.210042 42.114983 2.384160 -22.651321 -132.362116 41.716984 -108.836483 2.695649 -1.401669 0.445720 -0.306400 -0.474660 -0.152050 
-0.090880 18.355350 -3.146210 10.585149 -3.023928 -20.253231 -16.224987 11.412795 7.158380 10.777541 -6.258095 -64.338693 -2.457871 29.641435 89.374694 3.241367 17.221972 -0.835220 0.771130 0.457360 0.975990 17.756986 -8.451243 1.538282 -17.388304 9.355959 -18.371495 7.364149 -8.830764 44.992286 -1.180152 -6.267612 1.930084 -0.220340 -0.760630 0.388610 -1.499773 -4.197666 -9.691575 -7.998708 14.790803 62.515256 8.210927 13.836849 -8.239165 2.513091 -0.655095 -16.134266 -0.113902 -2.785709 62.965522 -5.130430 -0.915360 -27.406270 -23.259197 -10.824736 7.808318 -61.048173 25.925168 -26.456894 -45.430363 -12.349776 -3.672552 -2.834801 3.046465 0.806820 -0.677440 0.835140 0.021310 18.589191 24.026691 10.221102 43.365916 1.818024 -24.073808 -127.306156 47.133702 -107.176826 2.754826 -1.200572 0.480960 -0.286280 -0.507580 -0.147960 
-0.024060 18.424010 -3.184650 7.109448 -3.050717 -19.359866 -16.167086 11.418515 6.588186 11.080366 -6.135963 -58.745506 -2.107392 28.861247 88.414854 3.181745 16.895048 -0.791541 0.869600 0.580860 1.035680 17.827492 -7.742743 2.570632 -17.712918 12.765377 -25.031200 13.065545 -13.348139 52.560692 -1.681791 -8.078351 1.343989 -0.164600 -0.836910 0.380660 -1.668991 -4.615268 -9.983594 -3.864668 10.138017 63.963129 7.237886 11.190873 -8.421961 3.111400 -2.416089 -16.769515 -4.885585 0.136196 65.897423 -5.406160 -1.374400 -30.033810 -24.353856 -12.635460 8.206871 -60.598140 26.778238 -27.492666 -48.017208 -11.140811 -4.868176 -2.757720 3.067782 0.838910 -0.750310 0.905440 0.039000 18.882249 25.768187 10.364494 44.805025 1.594294 -25.346005 -120.419122 52.099615 -101.609117 2.827178 -0.848685 0.525340 -0.270570 -0.557640 -0.136870 
0.042020 18.447420 -3.214080 3.116820 -2.406092 -18.079590 -16.110435 11.431344 5.915625 11.419069 -5.821243 -53.325950 -1.396600 26.582068 85.580393 2.996973 16.092767 -0.623357 0.938810 0.670670 1.055210 17.912958 -6.954310 3.718607 -19.634564 15.732504 -32.306594 20.870547 -19.837443 57.728380 -2.276092 -10.081737 0.772691 -0.123030 -0.860730 0.381720 -1.848974 -5.147525 -10.243564 1.067343 4.658251 64.599217 6.053484 8.203306 -8.388355 3.802573 -4.399069 -17.410317 -10.362126 3.436874 66.846489 -5.399800 -2.086230 -31.103290 -25.413344 -14.260853 8.555818 -59.809457 27.432998 -28.135430 -50.289343 -10.281939 -5.895770 -2.702646 3.098797 0.845540 -0.790890 0.948040 0.077160 18.831077 27.469144 10.504068 45.850382 1.838971 -26.540533 -112.264701 56.312431 -92.252270 2.846770 -0.333942 0.559600 -0.248640 -0.598640 -0.104010 
